<mxfile host="app.diagrams.net" modified="2023-04-25T02:51:19.245Z" agent="Mozilla/5.0 (Windows NT 10.0; Win64; x64) AppleWebKit/537.36 (KHTML, like Gecko) Chrome/112.0.0.0 Safari/537.36" etag="GScdfz1oxi9oM8BOWMba" version="21.2.1" type="device">
  <diagram name="第 1 页" id="E8oEpTzGUvyuNaN51fWy">
    <mxGraphModel dx="657" dy="426" grid="1" gridSize="10" guides="1" tooltips="1" connect="1" arrows="1" fold="1" page="1" pageScale="1" pageWidth="827" pageHeight="1169" math="0" shadow="0">
      <root>
        <mxCell id="0" />
        <mxCell id="1" parent="0" />
        <mxCell id="lFroKfWNAPlT9c4xP5ak-36" value="" style="ellipse;whiteSpace=wrap;html=1;aspect=fixed;strokeColor=none;fillColor=#7a7374;" parent="1" vertex="1">
          <mxGeometry x="270" y="80" width="10" height="10" as="geometry" />
        </mxCell>
        <mxCell id="lFroKfWNAPlT9c4xP5ak-37" value="" style="ellipse;whiteSpace=wrap;html=1;aspect=fixed;strokeColor=none;fillColor=#7a7374;" parent="1" vertex="1">
          <mxGeometry x="270" y="130" width="10" height="10" as="geometry" />
        </mxCell>
        <mxCell id="lFroKfWNAPlT9c4xP5ak-38" value="" style="ellipse;whiteSpace=wrap;html=1;aspect=fixed;strokeColor=none;fillColor=#7a7374;" parent="1" vertex="1">
          <mxGeometry x="270" y="180" width="10" height="10" as="geometry" />
        </mxCell>
        <mxCell id="lFroKfWNAPlT9c4xP5ak-39" value="" style="ellipse;whiteSpace=wrap;html=1;aspect=fixed;strokeColor=none;fillColor=#7a7374;" parent="1" vertex="1">
          <mxGeometry x="270" y="230" width="10" height="10" as="geometry" />
        </mxCell>
        <mxCell id="lFroKfWNAPlT9c4xP5ak-40" value="" style="ellipse;whiteSpace=wrap;html=1;aspect=fixed;strokeColor=none;fillColor=#7a7374;" parent="1" vertex="1">
          <mxGeometry x="270" y="280" width="10" height="10" as="geometry" />
        </mxCell>
        <mxCell id="lFroKfWNAPlT9c4xP5ak-41" value="" style="ellipse;whiteSpace=wrap;html=1;aspect=fixed;strokeColor=none;fillColor=#7a7374;" parent="1" vertex="1">
          <mxGeometry x="270" y="330" width="10" height="10" as="geometry" />
        </mxCell>
        <mxCell id="lFroKfWNAPlT9c4xP5ak-42" value="" style="ellipse;whiteSpace=wrap;html=1;aspect=fixed;strokeColor=none;fillColor=#7a7374;" parent="1" vertex="1">
          <mxGeometry x="270" y="380" width="10" height="10" as="geometry" />
        </mxCell>
        <mxCell id="lFroKfWNAPlT9c4xP5ak-43" value="" style="ellipse;whiteSpace=wrap;html=1;aspect=fixed;strokeColor=none;fillColor=#7a7374;" parent="1" vertex="1">
          <mxGeometry x="270" y="430" width="10" height="10" as="geometry" />
        </mxCell>
        <mxCell id="lFroKfWNAPlT9c4xP5ak-44" value="" style="ellipse;whiteSpace=wrap;html=1;aspect=fixed;strokeColor=none;fillColor=#7a7374;" parent="1" vertex="1">
          <mxGeometry x="270" y="480" width="10" height="10" as="geometry" />
        </mxCell>
        <mxCell id="lFroKfWNAPlT9c4xP5ak-45" value="" style="ellipse;whiteSpace=wrap;html=1;aspect=fixed;strokeColor=none;fillColor=#7a7374;" parent="1" vertex="1">
          <mxGeometry x="270" y="530" width="10" height="10" as="geometry" />
        </mxCell>
        <mxCell id="lFroKfWNAPlT9c4xP5ak-46" value="" style="ellipse;whiteSpace=wrap;html=1;aspect=fixed;strokeColor=none;fillColor=#7a7374;" parent="1" vertex="1">
          <mxGeometry x="270" y="584.5" width="10" height="10" as="geometry" />
        </mxCell>
        <mxCell id="lFroKfWNAPlT9c4xP5ak-47" value="" style="ellipse;whiteSpace=wrap;html=1;aspect=fixed;strokeColor=none;fillColor=#7a7374;" parent="1" vertex="1">
          <mxGeometry x="270" y="634.5" width="10" height="10" as="geometry" />
        </mxCell>
        <mxCell id="lFroKfWNAPlT9c4xP5ak-48" value="" style="ellipse;whiteSpace=wrap;html=1;aspect=fixed;strokeColor=none;fillColor=#7a7374;" parent="1" vertex="1">
          <mxGeometry x="270" y="684.5" width="10" height="10" as="geometry" />
        </mxCell>
        <mxCell id="lFroKfWNAPlT9c4xP5ak-49" value="" style="ellipse;whiteSpace=wrap;html=1;aspect=fixed;strokeColor=none;fillColor=#7a7374;" parent="1" vertex="1">
          <mxGeometry x="270" y="734.5" width="10" height="10" as="geometry" />
        </mxCell>
        <mxCell id="lFroKfWNAPlT9c4xP5ak-50" value="" style="ellipse;whiteSpace=wrap;html=1;aspect=fixed;strokeColor=none;fillColor=#7a7374;" parent="1" vertex="1">
          <mxGeometry x="270" y="784.5" width="10" height="10" as="geometry" />
        </mxCell>
        <mxCell id="lFroKfWNAPlT9c4xP5ak-51" value="" style="ellipse;whiteSpace=wrap;html=1;aspect=fixed;strokeColor=none;fillColor=#7a7374;" parent="1" vertex="1">
          <mxGeometry x="270" y="834.5" width="10" height="10" as="geometry" />
        </mxCell>
        <mxCell id="lFroKfWNAPlT9c4xP5ak-52" value="" style="ellipse;whiteSpace=wrap;html=1;aspect=fixed;strokeColor=none;fillColor=#7a7374;" parent="1" vertex="1">
          <mxGeometry x="270" y="884.5" width="10" height="10" as="geometry" />
        </mxCell>
        <mxCell id="lFroKfWNAPlT9c4xP5ak-53" value="" style="ellipse;whiteSpace=wrap;html=1;aspect=fixed;strokeColor=none;fillColor=#7a7374;" parent="1" vertex="1">
          <mxGeometry x="270" y="934.5" width="10" height="10" as="geometry" />
        </mxCell>
        <mxCell id="lFroKfWNAPlT9c4xP5ak-54" value="" style="ellipse;whiteSpace=wrap;html=1;aspect=fixed;strokeColor=none;fillColor=#7a7374;" parent="1" vertex="1">
          <mxGeometry x="270" y="984.5" width="10" height="10" as="geometry" />
        </mxCell>
        <mxCell id="lFroKfWNAPlT9c4xP5ak-55" value="" style="ellipse;whiteSpace=wrap;html=1;aspect=fixed;strokeColor=none;fillColor=#7a7374;" parent="1" vertex="1">
          <mxGeometry x="270" y="1034.5" width="10" height="10" as="geometry" />
        </mxCell>
        <mxCell id="lFroKfWNAPlT9c4xP5ak-58" value="" style="endArrow=none;html=1;rounded=1;entryX=0.5;entryY=1;entryDx=0;entryDy=0;exitX=0.5;exitY=0;exitDx=0;exitDy=0;strokeColor=#7a7374;strokeWidth=3;opacity=75;" parent="1" source="lFroKfWNAPlT9c4xP5ak-37" target="lFroKfWNAPlT9c4xP5ak-36" edge="1">
          <mxGeometry width="50" height="50" relative="1" as="geometry">
            <mxPoint x="290" y="130" as="sourcePoint" />
            <mxPoint x="350" y="100" as="targetPoint" />
          </mxGeometry>
        </mxCell>
        <mxCell id="lFroKfWNAPlT9c4xP5ak-59" value="" style="endArrow=none;html=1;rounded=1;entryX=0.5;entryY=1;entryDx=0;entryDy=0;exitX=0.5;exitY=0;exitDx=0;exitDy=0;strokeColor=#7a7374;strokeWidth=3;opacity=75;dashed=1;dashPattern=1 4;" parent="1" edge="1">
          <mxGeometry width="50" height="50" relative="1" as="geometry">
            <mxPoint x="274.74" y="80" as="sourcePoint" />
            <mxPoint x="274.74" y="40" as="targetPoint" />
          </mxGeometry>
        </mxCell>
        <mxCell id="lFroKfWNAPlT9c4xP5ak-60" value="" style="endArrow=none;html=1;rounded=1;entryX=0.5;entryY=1;entryDx=0;entryDy=0;exitX=0.5;exitY=0;exitDx=0;exitDy=0;strokeColor=#7a7374;strokeWidth=3;opacity=75;" parent="1" edge="1">
          <mxGeometry width="50" height="50" relative="1" as="geometry">
            <mxPoint x="274.74" y="180" as="sourcePoint" />
            <mxPoint x="274.74" y="140" as="targetPoint" />
          </mxGeometry>
        </mxCell>
        <mxCell id="lFroKfWNAPlT9c4xP5ak-61" value="" style="endArrow=none;html=1;rounded=1;entryX=0.5;entryY=1;entryDx=0;entryDy=0;exitX=0.5;exitY=0;exitDx=0;exitDy=0;strokeColor=#7a7374;strokeWidth=3;opacity=75;" parent="1" edge="1">
          <mxGeometry width="50" height="50" relative="1" as="geometry">
            <mxPoint x="274.74" y="230" as="sourcePoint" />
            <mxPoint x="274.74" y="190" as="targetPoint" />
          </mxGeometry>
        </mxCell>
        <mxCell id="lFroKfWNAPlT9c4xP5ak-62" value="" style="endArrow=none;html=1;rounded=1;entryX=0.5;entryY=1;entryDx=0;entryDy=0;exitX=0.5;exitY=0;exitDx=0;exitDy=0;strokeColor=#7a7374;strokeWidth=3;opacity=75;" parent="1" edge="1">
          <mxGeometry width="50" height="50" relative="1" as="geometry">
            <mxPoint x="274.74" y="280" as="sourcePoint" />
            <mxPoint x="274.74" y="240" as="targetPoint" />
          </mxGeometry>
        </mxCell>
        <mxCell id="lFroKfWNAPlT9c4xP5ak-63" value="" style="endArrow=none;html=1;rounded=1;entryX=0.5;entryY=1;entryDx=0;entryDy=0;exitX=0.5;exitY=0;exitDx=0;exitDy=0;strokeColor=#7a7374;strokeWidth=3;opacity=75;" parent="1" edge="1">
          <mxGeometry width="50" height="50" relative="1" as="geometry">
            <mxPoint x="274.74" y="330" as="sourcePoint" />
            <mxPoint x="274.74" y="290" as="targetPoint" />
          </mxGeometry>
        </mxCell>
        <mxCell id="lFroKfWNAPlT9c4xP5ak-64" value="" style="endArrow=none;html=1;rounded=1;entryX=0.5;entryY=1;entryDx=0;entryDy=0;exitX=0.5;exitY=0;exitDx=0;exitDy=0;strokeColor=#7a7374;strokeWidth=3;opacity=75;" parent="1" edge="1">
          <mxGeometry width="50" height="50" relative="1" as="geometry">
            <mxPoint x="274.74" y="380" as="sourcePoint" />
            <mxPoint x="274.74" y="340" as="targetPoint" />
          </mxGeometry>
        </mxCell>
        <mxCell id="lFroKfWNAPlT9c4xP5ak-65" value="" style="endArrow=none;html=1;rounded=1;entryX=0.5;entryY=1;entryDx=0;entryDy=0;exitX=0.5;exitY=0;exitDx=0;exitDy=0;strokeColor=#7a7374;strokeWidth=3;opacity=75;" parent="1" edge="1">
          <mxGeometry width="50" height="50" relative="1" as="geometry">
            <mxPoint x="274.74" y="430" as="sourcePoint" />
            <mxPoint x="274.74" y="390" as="targetPoint" />
          </mxGeometry>
        </mxCell>
        <mxCell id="lFroKfWNAPlT9c4xP5ak-66" value="" style="endArrow=none;html=1;rounded=1;entryX=0.5;entryY=1;entryDx=0;entryDy=0;exitX=0.5;exitY=0;exitDx=0;exitDy=0;strokeColor=#7a7374;strokeWidth=3;opacity=75;" parent="1" edge="1">
          <mxGeometry width="50" height="50" relative="1" as="geometry">
            <mxPoint x="274.74" y="480" as="sourcePoint" />
            <mxPoint x="274.74" y="440" as="targetPoint" />
          </mxGeometry>
        </mxCell>
        <mxCell id="lFroKfWNAPlT9c4xP5ak-67" value="" style="endArrow=none;html=1;rounded=1;entryX=0.5;entryY=1;entryDx=0;entryDy=0;exitX=0.5;exitY=0;exitDx=0;exitDy=0;strokeColor=#7a7374;strokeWidth=3;opacity=75;" parent="1" edge="1">
          <mxGeometry width="50" height="50" relative="1" as="geometry">
            <mxPoint x="274.74" y="530" as="sourcePoint" />
            <mxPoint x="274.74" y="490" as="targetPoint" />
          </mxGeometry>
        </mxCell>
        <mxCell id="lFroKfWNAPlT9c4xP5ak-69" value="" style="endArrow=none;html=1;rounded=1;entryX=0.5;entryY=1;entryDx=0;entryDy=0;strokeColor=#7a7374;strokeWidth=3;opacity=75;exitX=0.5;exitY=0;exitDx=0;exitDy=0;" parent="1" source="lFroKfWNAPlT9c4xP5ak-46" edge="1">
          <mxGeometry width="50" height="50" relative="1" as="geometry">
            <mxPoint x="275" y="580" as="sourcePoint" />
            <mxPoint x="274.74" y="540" as="targetPoint" />
          </mxGeometry>
        </mxCell>
        <mxCell id="lFroKfWNAPlT9c4xP5ak-70" value="" style="endArrow=none;html=1;rounded=1;entryX=0.5;entryY=1;entryDx=0;entryDy=0;strokeColor=#7a7374;strokeWidth=3;opacity=75;exitX=0.5;exitY=0;exitDx=0;exitDy=0;" parent="1" edge="1">
          <mxGeometry width="50" height="50" relative="1" as="geometry">
            <mxPoint x="275" y="639.5" as="sourcePoint" />
            <mxPoint x="274.74" y="594.5" as="targetPoint" />
          </mxGeometry>
        </mxCell>
        <mxCell id="lFroKfWNAPlT9c4xP5ak-71" value="" style="endArrow=none;html=1;rounded=1;entryX=0.5;entryY=1;entryDx=0;entryDy=0;exitX=0.5;exitY=0;exitDx=0;exitDy=0;strokeColor=#7a7374;strokeWidth=3;opacity=75;" parent="1" edge="1">
          <mxGeometry width="50" height="50" relative="1" as="geometry">
            <mxPoint x="274.74" y="684.5" as="sourcePoint" />
            <mxPoint x="274.74" y="644.5" as="targetPoint" />
          </mxGeometry>
        </mxCell>
        <mxCell id="lFroKfWNAPlT9c4xP5ak-72" value="" style="endArrow=none;html=1;rounded=1;entryX=0.5;entryY=1;entryDx=0;entryDy=0;exitX=0.5;exitY=0;exitDx=0;exitDy=0;strokeColor=#7a7374;strokeWidth=3;opacity=75;" parent="1" edge="1">
          <mxGeometry width="50" height="50" relative="1" as="geometry">
            <mxPoint x="274.74" y="734.5" as="sourcePoint" />
            <mxPoint x="274.74" y="694.5" as="targetPoint" />
          </mxGeometry>
        </mxCell>
        <mxCell id="lFroKfWNAPlT9c4xP5ak-73" value="" style="endArrow=none;html=1;rounded=1;entryX=0.5;entryY=1;entryDx=0;entryDy=0;exitX=0.5;exitY=0;exitDx=0;exitDy=0;strokeColor=#7a7374;strokeWidth=3;opacity=75;" parent="1" edge="1">
          <mxGeometry width="50" height="50" relative="1" as="geometry">
            <mxPoint x="274.74" y="784.5" as="sourcePoint" />
            <mxPoint x="274.74" y="744.5" as="targetPoint" />
          </mxGeometry>
        </mxCell>
        <mxCell id="lFroKfWNAPlT9c4xP5ak-74" value="" style="endArrow=none;html=1;rounded=1;entryX=0.5;entryY=1;entryDx=0;entryDy=0;exitX=0.5;exitY=0;exitDx=0;exitDy=0;strokeColor=#7a7374;strokeWidth=3;opacity=75;" parent="1" edge="1">
          <mxGeometry width="50" height="50" relative="1" as="geometry">
            <mxPoint x="274.74" y="834.5" as="sourcePoint" />
            <mxPoint x="274.74" y="794.5" as="targetPoint" />
          </mxGeometry>
        </mxCell>
        <mxCell id="lFroKfWNAPlT9c4xP5ak-75" value="" style="endArrow=none;html=1;rounded=1;entryX=0.5;entryY=1;entryDx=0;entryDy=0;exitX=0.5;exitY=0;exitDx=0;exitDy=0;strokeColor=#7a7374;strokeWidth=3;opacity=75;" parent="1" edge="1">
          <mxGeometry width="50" height="50" relative="1" as="geometry">
            <mxPoint x="274.74" y="884.5" as="sourcePoint" />
            <mxPoint x="274.74" y="844.5" as="targetPoint" />
          </mxGeometry>
        </mxCell>
        <mxCell id="lFroKfWNAPlT9c4xP5ak-76" value="" style="endArrow=none;html=1;rounded=1;entryX=0.5;entryY=1;entryDx=0;entryDy=0;exitX=0.5;exitY=0;exitDx=0;exitDy=0;strokeColor=#7a7374;strokeWidth=3;opacity=75;" parent="1" edge="1">
          <mxGeometry width="50" height="50" relative="1" as="geometry">
            <mxPoint x="274.74" y="934.5" as="sourcePoint" />
            <mxPoint x="274.74" y="894.5" as="targetPoint" />
          </mxGeometry>
        </mxCell>
        <mxCell id="lFroKfWNAPlT9c4xP5ak-77" value="" style="endArrow=none;html=1;rounded=1;entryX=0.5;entryY=1;entryDx=0;entryDy=0;exitX=0.5;exitY=0;exitDx=0;exitDy=0;strokeColor=#7a7374;strokeWidth=3;opacity=75;" parent="1" edge="1">
          <mxGeometry width="50" height="50" relative="1" as="geometry">
            <mxPoint x="274.74" y="984.5" as="sourcePoint" />
            <mxPoint x="274.74" y="944.5" as="targetPoint" />
          </mxGeometry>
        </mxCell>
        <mxCell id="lFroKfWNAPlT9c4xP5ak-78" value="" style="endArrow=none;html=1;rounded=1;entryX=0.5;entryY=1;entryDx=0;entryDy=0;exitX=0.5;exitY=0;exitDx=0;exitDy=0;strokeColor=#7a7374;strokeWidth=3;opacity=75;" parent="1" edge="1">
          <mxGeometry width="50" height="50" relative="1" as="geometry">
            <mxPoint x="274.74" y="1034.5" as="sourcePoint" />
            <mxPoint x="274.74" y="994.5" as="targetPoint" />
          </mxGeometry>
        </mxCell>
        <mxCell id="lFroKfWNAPlT9c4xP5ak-79" value="" style="endArrow=none;html=1;rounded=1;entryX=0.5;entryY=1;entryDx=0;entryDy=0;exitX=0.5;exitY=0;exitDx=0;exitDy=0;strokeColor=#7a7374;strokeWidth=3;opacity=75;dashed=1;" parent="1" edge="1">
          <mxGeometry width="50" height="50" relative="1" as="geometry">
            <mxPoint x="274.74" y="1084.5" as="sourcePoint" />
            <mxPoint x="274.74" y="1044.5" as="targetPoint" />
          </mxGeometry>
        </mxCell>
        <mxCell id="lFroKfWNAPlT9c4xP5ak-86" value="&lt;font style=&quot;font-size: 14px;&quot;&gt;&lt;i&gt;1705&lt;/i&gt;&lt;/font&gt;&lt;i style=&quot;border-color: var(--border-color); font-size: 14px;&quot;&gt;年&lt;/i&gt;" style="text;strokeColor=none;fillColor=none;html=1;fontSize=7;fontStyle=0;verticalAlign=middle;align=center;fontFamily=Comic Sans MS;" parent="1" vertex="1">
          <mxGeometry x="160" y="75" width="100" height="20" as="geometry" />
        </mxCell>
        <mxCell id="lFroKfWNAPlT9c4xP5ak-102" value="" style="endArrow=none;html=1;rounded=1;exitX=1;exitY=0.5;exitDx=0;exitDy=0;strokeColor=#5e616d;strokeWidth=2;" parent="1" source="lFroKfWNAPlT9c4xP5ak-36" edge="1">
          <mxGeometry width="50" height="50" relative="1" as="geometry">
            <mxPoint x="350" y="95" as="sourcePoint" />
            <mxPoint x="320" y="85" as="targetPoint" />
          </mxGeometry>
        </mxCell>
        <mxCell id="lFroKfWNAPlT9c4xP5ak-103" value="" style="endArrow=none;html=1;rounded=1;exitX=1;exitY=0.5;exitDx=0;exitDy=0;strokeColor=#5e616d;strokeWidth=2;" parent="1" edge="1">
          <mxGeometry width="50" height="50" relative="1" as="geometry">
            <mxPoint x="280" y="134.69" as="sourcePoint" />
            <mxPoint x="320" y="134.69" as="targetPoint" />
          </mxGeometry>
        </mxCell>
        <mxCell id="lFroKfWNAPlT9c4xP5ak-104" value="" style="endArrow=none;html=1;rounded=1;exitX=1;exitY=0.5;exitDx=0;exitDy=0;strokeColor=#5e616d;strokeWidth=2;" parent="1" edge="1">
          <mxGeometry width="50" height="50" relative="1" as="geometry">
            <mxPoint x="280" y="184.69" as="sourcePoint" />
            <mxPoint x="320" y="184.69" as="targetPoint" />
          </mxGeometry>
        </mxCell>
        <mxCell id="lFroKfWNAPlT9c4xP5ak-105" value="" style="endArrow=none;html=1;rounded=1;exitX=1;exitY=0.5;exitDx=0;exitDy=0;strokeColor=#5e616d;strokeWidth=2;" parent="1" edge="1">
          <mxGeometry width="50" height="50" relative="1" as="geometry">
            <mxPoint x="280" y="234.69" as="sourcePoint" />
            <mxPoint x="320" y="234.69" as="targetPoint" />
          </mxGeometry>
        </mxCell>
        <mxCell id="lFroKfWNAPlT9c4xP5ak-106" value="" style="endArrow=none;html=1;rounded=1;exitX=1;exitY=0.5;exitDx=0;exitDy=0;strokeColor=#5e616d;strokeWidth=2;" parent="1" edge="1">
          <mxGeometry width="50" height="50" relative="1" as="geometry">
            <mxPoint x="280" y="284.69" as="sourcePoint" />
            <mxPoint x="320" y="284.69" as="targetPoint" />
          </mxGeometry>
        </mxCell>
        <mxCell id="lFroKfWNAPlT9c4xP5ak-107" value="" style="endArrow=none;html=1;rounded=1;exitX=1;exitY=0.5;exitDx=0;exitDy=0;strokeColor=#5e616d;strokeWidth=2;" parent="1" edge="1">
          <mxGeometry width="50" height="50" relative="1" as="geometry">
            <mxPoint x="280" y="334.69" as="sourcePoint" />
            <mxPoint x="320" y="334.69" as="targetPoint" />
          </mxGeometry>
        </mxCell>
        <mxCell id="lFroKfWNAPlT9c4xP5ak-108" value="" style="endArrow=none;html=1;rounded=1;exitX=1;exitY=0.5;exitDx=0;exitDy=0;strokeColor=#5e616d;strokeWidth=2;" parent="1" edge="1">
          <mxGeometry width="50" height="50" relative="1" as="geometry">
            <mxPoint x="280" y="384.69" as="sourcePoint" />
            <mxPoint x="320" y="384.69" as="targetPoint" />
          </mxGeometry>
        </mxCell>
        <mxCell id="lFroKfWNAPlT9c4xP5ak-109" value="" style="endArrow=none;html=1;rounded=1;exitX=1;exitY=0.5;exitDx=0;exitDy=0;strokeColor=#5e616d;strokeWidth=2;" parent="1" edge="1">
          <mxGeometry width="50" height="50" relative="1" as="geometry">
            <mxPoint x="280" y="434.69" as="sourcePoint" />
            <mxPoint x="320" y="434.69" as="targetPoint" />
          </mxGeometry>
        </mxCell>
        <mxCell id="lFroKfWNAPlT9c4xP5ak-110" value="" style="endArrow=none;html=1;rounded=1;exitX=1;exitY=0.5;exitDx=0;exitDy=0;strokeColor=#5e616d;strokeWidth=2;" parent="1" edge="1">
          <mxGeometry width="50" height="50" relative="1" as="geometry">
            <mxPoint x="280" y="484.69" as="sourcePoint" />
            <mxPoint x="320" y="484.69" as="targetPoint" />
          </mxGeometry>
        </mxCell>
        <mxCell id="lFroKfWNAPlT9c4xP5ak-111" value="" style="endArrow=none;html=1;rounded=1;exitX=1;exitY=0.5;exitDx=0;exitDy=0;strokeColor=#5e616d;strokeWidth=2;" parent="1" edge="1">
          <mxGeometry width="50" height="50" relative="1" as="geometry">
            <mxPoint x="280" y="534.69" as="sourcePoint" />
            <mxPoint x="320" y="534.69" as="targetPoint" />
          </mxGeometry>
        </mxCell>
        <mxCell id="lFroKfWNAPlT9c4xP5ak-112" value="" style="endArrow=none;html=1;rounded=1;exitX=1;exitY=0.5;exitDx=0;exitDy=0;strokeColor=#5e616d;strokeWidth=2;" parent="1" edge="1">
          <mxGeometry width="50" height="50" relative="1" as="geometry">
            <mxPoint x="280" y="589.19" as="sourcePoint" />
            <mxPoint x="320" y="589.19" as="targetPoint" />
          </mxGeometry>
        </mxCell>
        <mxCell id="lFroKfWNAPlT9c4xP5ak-113" value="" style="endArrow=none;html=1;rounded=1;exitX=1;exitY=0.5;exitDx=0;exitDy=0;strokeColor=#5e616d;strokeWidth=2;" parent="1" edge="1">
          <mxGeometry width="50" height="50" relative="1" as="geometry">
            <mxPoint x="280" y="639.19" as="sourcePoint" />
            <mxPoint x="320" y="639.19" as="targetPoint" />
          </mxGeometry>
        </mxCell>
        <mxCell id="lFroKfWNAPlT9c4xP5ak-114" value="" style="endArrow=none;html=1;rounded=1;exitX=1;exitY=0.5;exitDx=0;exitDy=0;strokeColor=#5e616d;strokeWidth=2;" parent="1" edge="1">
          <mxGeometry width="50" height="50" relative="1" as="geometry">
            <mxPoint x="280" y="689.19" as="sourcePoint" />
            <mxPoint x="320" y="689.19" as="targetPoint" />
          </mxGeometry>
        </mxCell>
        <mxCell id="lFroKfWNAPlT9c4xP5ak-115" value="" style="endArrow=none;html=1;rounded=1;exitX=1;exitY=0.5;exitDx=0;exitDy=0;strokeColor=#5e616d;strokeWidth=2;" parent="1" edge="1">
          <mxGeometry width="50" height="50" relative="1" as="geometry">
            <mxPoint x="280" y="739.19" as="sourcePoint" />
            <mxPoint x="320" y="739.19" as="targetPoint" />
          </mxGeometry>
        </mxCell>
        <mxCell id="lFroKfWNAPlT9c4xP5ak-116" value="" style="endArrow=none;html=1;rounded=1;exitX=1;exitY=0.5;exitDx=0;exitDy=0;strokeColor=#5e616d;strokeWidth=2;" parent="1" edge="1">
          <mxGeometry width="50" height="50" relative="1" as="geometry">
            <mxPoint x="280" y="789.19" as="sourcePoint" />
            <mxPoint x="320" y="789.19" as="targetPoint" />
          </mxGeometry>
        </mxCell>
        <mxCell id="lFroKfWNAPlT9c4xP5ak-117" value="" style="endArrow=none;html=1;rounded=1;exitX=1;exitY=0.5;exitDx=0;exitDy=0;strokeColor=#5e616d;strokeWidth=2;" parent="1" edge="1">
          <mxGeometry width="50" height="50" relative="1" as="geometry">
            <mxPoint x="280" y="839.19" as="sourcePoint" />
            <mxPoint x="320" y="839.19" as="targetPoint" />
          </mxGeometry>
        </mxCell>
        <mxCell id="lFroKfWNAPlT9c4xP5ak-118" value="" style="endArrow=none;html=1;rounded=1;exitX=1;exitY=0.5;exitDx=0;exitDy=0;strokeColor=#5e616d;strokeWidth=2;" parent="1" edge="1">
          <mxGeometry width="50" height="50" relative="1" as="geometry">
            <mxPoint x="280" y="889.19" as="sourcePoint" />
            <mxPoint x="320" y="889.19" as="targetPoint" />
          </mxGeometry>
        </mxCell>
        <mxCell id="lFroKfWNAPlT9c4xP5ak-119" value="" style="endArrow=none;html=1;rounded=1;exitX=1;exitY=0.5;exitDx=0;exitDy=0;strokeColor=#5e616d;strokeWidth=2;" parent="1" edge="1">
          <mxGeometry width="50" height="50" relative="1" as="geometry">
            <mxPoint x="280" y="939.19" as="sourcePoint" />
            <mxPoint x="320" y="939.19" as="targetPoint" />
          </mxGeometry>
        </mxCell>
        <mxCell id="lFroKfWNAPlT9c4xP5ak-120" value="" style="endArrow=none;html=1;rounded=1;exitX=1;exitY=0.5;exitDx=0;exitDy=0;strokeColor=#5e616d;strokeWidth=2;" parent="1" edge="1">
          <mxGeometry width="50" height="50" relative="1" as="geometry">
            <mxPoint x="280" y="989.19" as="sourcePoint" />
            <mxPoint x="320" y="989.19" as="targetPoint" />
          </mxGeometry>
        </mxCell>
        <mxCell id="lFroKfWNAPlT9c4xP5ak-121" value="" style="endArrow=none;html=1;rounded=1;exitX=1;exitY=0.5;exitDx=0;exitDy=0;strokeColor=#5e616d;strokeWidth=2;" parent="1" edge="1">
          <mxGeometry width="50" height="50" relative="1" as="geometry">
            <mxPoint x="280" y="1039.19" as="sourcePoint" />
            <mxPoint x="320" y="1039.19" as="targetPoint" />
          </mxGeometry>
        </mxCell>
        <mxCell id="lFroKfWNAPlT9c4xP5ak-122" value="&lt;font style=&quot;font-size: 14px;&quot;&gt;&lt;i&gt;1734&lt;/i&gt;&lt;/font&gt;&lt;i style=&quot;border-color: var(--border-color); font-size: 14px;&quot;&gt;年&lt;/i&gt;" style="text;strokeColor=none;fillColor=none;html=1;fontSize=7;fontStyle=0;verticalAlign=middle;align=center;fontFamily=Comic Sans MS;" parent="1" vertex="1">
          <mxGeometry x="160" y="125" width="100" height="20" as="geometry" />
        </mxCell>
        <mxCell id="lFroKfWNAPlT9c4xP5ak-123" value="&lt;font style=&quot;font-size: 14px;&quot;&gt;&lt;i&gt;1735&lt;/i&gt;&lt;/font&gt;&lt;i style=&quot;border-color: var(--border-color); font-size: 14px;&quot;&gt;年&lt;/i&gt;" style="text;strokeColor=none;fillColor=none;html=1;fontSize=7;fontStyle=0;verticalAlign=middle;align=center;fontFamily=Comic Sans MS;" parent="1" vertex="1">
          <mxGeometry x="160" y="175" width="100" height="20" as="geometry" />
        </mxCell>
        <mxCell id="lFroKfWNAPlT9c4xP5ak-124" value="&lt;font style=&quot;font-size: 14px;&quot;&gt;&lt;i&gt;1743&lt;/i&gt;&lt;/font&gt;&lt;i style=&quot;border-color: var(--border-color); font-size: 14px;&quot;&gt;年&lt;/i&gt;" style="text;strokeColor=none;fillColor=none;html=1;fontSize=7;fontStyle=0;verticalAlign=middle;align=center;fontFamily=Comic Sans MS;" parent="1" vertex="1">
          <mxGeometry x="160" y="225" width="100" height="20" as="geometry" />
        </mxCell>
        <mxCell id="lFroKfWNAPlT9c4xP5ak-125" value="&lt;span style=&quot;font-size: 14px;&quot;&gt;&lt;i&gt;1752&lt;/i&gt;&lt;/span&gt;&lt;i style=&quot;border-color: var(--border-color); font-size: 14px;&quot;&gt;年&lt;/i&gt;" style="text;strokeColor=none;fillColor=none;html=1;fontSize=7;fontStyle=0;verticalAlign=middle;align=center;fontFamily=Comic Sans MS;" parent="1" vertex="1">
          <mxGeometry x="160" y="275" width="100" height="20" as="geometry" />
        </mxCell>
        <mxCell id="lFroKfWNAPlT9c4xP5ak-126" value="&lt;font style=&quot;font-size: 14px;&quot;&gt;&lt;i&gt;1755&lt;/i&gt;&lt;/font&gt;&lt;i style=&quot;border-color: var(--border-color); font-size: 14px;&quot;&gt;年&lt;/i&gt;" style="text;strokeColor=none;fillColor=none;html=1;fontSize=7;fontStyle=0;verticalAlign=middle;align=center;fontFamily=Comic Sans MS;" parent="1" vertex="1">
          <mxGeometry x="160" y="325" width="100" height="20" as="geometry" />
        </mxCell>
        <mxCell id="lFroKfWNAPlT9c4xP5ak-127" value="&lt;span style=&quot;font-size: 14px;&quot;&gt;&lt;i&gt;1756&lt;/i&gt;&lt;/span&gt;&lt;i style=&quot;border-color: var(--border-color); font-size: 14px;&quot;&gt;年&lt;/i&gt;" style="text;strokeColor=none;fillColor=none;html=1;fontSize=7;fontStyle=0;verticalAlign=middle;align=center;fontFamily=Comic Sans MS;" parent="1" vertex="1">
          <mxGeometry x="160" y="374.5" width="100" height="20" as="geometry" />
        </mxCell>
        <mxCell id="lFroKfWNAPlT9c4xP5ak-128" value="&lt;span style=&quot;font-size: 14px;&quot;&gt;&lt;i&gt;1765&lt;/i&gt;&lt;/span&gt;&lt;i style=&quot;border-color: var(--border-color); font-size: 14px;&quot;&gt;年&lt;/i&gt;" style="text;strokeColor=none;fillColor=none;html=1;fontSize=7;fontStyle=0;verticalAlign=middle;align=center;fontFamily=Comic Sans MS;" parent="1" vertex="1">
          <mxGeometry x="160" y="424.5" width="100" height="20" as="geometry" />
        </mxCell>
        <mxCell id="lFroKfWNAPlT9c4xP5ak-129" value="&lt;span style=&quot;font-size: 14px;&quot;&gt;&lt;i&gt;1765-1787&lt;/i&gt;&lt;/span&gt;&lt;i style=&quot;border-color: var(--border-color); font-size: 14px;&quot;&gt;年&lt;/i&gt;" style="text;strokeColor=none;fillColor=none;html=1;fontSize=7;fontStyle=0;verticalAlign=middle;align=center;fontFamily=Comic Sans MS;" parent="1" vertex="1">
          <mxGeometry x="160" y="474.5" width="100" height="20" as="geometry" />
        </mxCell>
        <mxCell id="lFroKfWNAPlT9c4xP5ak-130" value="&lt;span style=&quot;font-size: 14px;&quot;&gt;&lt;i&gt;1766&lt;/i&gt;&lt;/span&gt;&lt;i style=&quot;border-color: var(--border-color); font-size: 14px;&quot;&gt;年&lt;/i&gt;" style="text;strokeColor=none;fillColor=none;html=1;fontSize=7;fontStyle=0;verticalAlign=middle;align=center;fontFamily=Comic Sans MS;" parent="1" vertex="1">
          <mxGeometry x="160" y="524.5" width="100" height="20" as="geometry" />
        </mxCell>
        <mxCell id="lFroKfWNAPlT9c4xP5ak-131" value="&lt;span style=&quot;font-size: 14px;&quot;&gt;&lt;i&gt;1772&lt;/i&gt;&lt;/span&gt;&lt;i style=&quot;border-color: var(--border-color); font-size: 14px;&quot;&gt;年&lt;/i&gt;" style="text;strokeColor=none;fillColor=none;html=1;fontSize=7;fontStyle=0;verticalAlign=middle;align=center;fontFamily=Comic Sans MS;" parent="1" vertex="1">
          <mxGeometry x="145" y="579.5" width="130" height="20" as="geometry" />
        </mxCell>
        <mxCell id="lFroKfWNAPlT9c4xP5ak-132" value="&lt;span style=&quot;font-size: 14px;&quot;&gt;&lt;i&gt;1773&lt;/i&gt;&lt;/span&gt;&lt;i style=&quot;border-color: var(--border-color); font-size: 14px;&quot;&gt;年&lt;/i&gt;" style="text;strokeColor=none;fillColor=none;html=1;fontSize=7;fontStyle=0;verticalAlign=middle;align=center;fontFamily=Comic Sans MS;" parent="1" vertex="1">
          <mxGeometry x="160" y="629.5" width="100" height="20" as="geometry" />
        </mxCell>
        <mxCell id="lFroKfWNAPlT9c4xP5ak-133" value="&lt;span style=&quot;font-size: 14px;&quot;&gt;&lt;i&gt;1777&lt;/i&gt;&lt;/span&gt;&lt;i style=&quot;border-color: var(--border-color); font-size: 14px;&quot;&gt;年&lt;/i&gt;" style="text;strokeColor=none;fillColor=none;html=1;fontSize=7;fontStyle=0;verticalAlign=middle;align=center;fontFamily=Comic Sans MS;" parent="1" vertex="1">
          <mxGeometry x="160" y="679.75" width="100" height="20" as="geometry" />
        </mxCell>
        <mxCell id="lFroKfWNAPlT9c4xP5ak-134" value="&lt;span style=&quot;font-size: 14px;&quot;&gt;&lt;i&gt;1781&lt;/i&gt;&lt;/span&gt;&lt;i style=&quot;border-color: var(--border-color); font-size: 14px;&quot;&gt;年&lt;/i&gt;" style="text;strokeColor=none;fillColor=none;html=1;fontSize=7;fontStyle=0;verticalAlign=middle;align=center;fontFamily=Comic Sans MS;" parent="1" vertex="1">
          <mxGeometry x="160" y="729.75" width="100" height="20" as="geometry" />
        </mxCell>
        <mxCell id="lFroKfWNAPlT9c4xP5ak-135" value="&lt;span style=&quot;font-size: 14px;&quot;&gt;&lt;i&gt;1783&lt;/i&gt;&lt;/span&gt;&lt;i style=&quot;border-color: var(--border-color); font-size: 14px;&quot;&gt;年&lt;/i&gt;" style="text;strokeColor=none;fillColor=none;html=1;fontSize=7;fontStyle=0;verticalAlign=middle;align=center;fontFamily=Comic Sans MS;" parent="1" vertex="1">
          <mxGeometry x="160" y="779.5" width="100" height="20" as="geometry" />
        </mxCell>
        <mxCell id="lFroKfWNAPlT9c4xP5ak-136" value="&lt;span style=&quot;font-size: 14px;&quot;&gt;&lt;i&gt;1785&lt;/i&gt;&lt;/span&gt;&lt;i style=&quot;border-color: var(--border-color); font-size: 14px;&quot;&gt;年&lt;/i&gt;" style="text;strokeColor=none;fillColor=none;html=1;fontSize=7;fontStyle=0;verticalAlign=middle;align=center;fontFamily=Comic Sans MS;" parent="1" vertex="1">
          <mxGeometry x="160" y="829.75" width="100" height="20" as="geometry" />
        </mxCell>
        <mxCell id="lFroKfWNAPlT9c4xP5ak-137" value="&lt;span style=&quot;font-size: 14px;&quot;&gt;&lt;i&gt;1787&lt;/i&gt;&lt;/span&gt;&lt;i style=&quot;border-color: var(--border-color); font-size: 14px;&quot;&gt;年&lt;/i&gt;" style="text;strokeColor=none;fillColor=none;html=1;fontSize=7;fontStyle=0;verticalAlign=middle;align=center;fontFamily=Comic Sans MS;" parent="1" vertex="1">
          <mxGeometry x="160" y="879.75" width="100" height="20" as="geometry" />
        </mxCell>
        <mxCell id="lFroKfWNAPlT9c4xP5ak-138" value="&lt;span style=&quot;font-size: 14px;&quot;&gt;&lt;i&gt;1796&lt;/i&gt;&lt;/span&gt;&lt;i style=&quot;border-color: var(--border-color); font-size: 14px;&quot;&gt;年&lt;/i&gt;" style="text;strokeColor=none;fillColor=none;html=1;fontSize=7;fontStyle=0;verticalAlign=middle;align=center;fontFamily=Comic Sans MS;" parent="1" vertex="1">
          <mxGeometry x="160" y="929.5" width="100" height="20" as="geometry" />
        </mxCell>
        <mxCell id="lFroKfWNAPlT9c4xP5ak-139" value="&lt;span style=&quot;font-size: 14px;&quot;&gt;&lt;i&gt;1798&lt;/i&gt;&lt;/span&gt;&lt;i style=&quot;border-color: var(--border-color); font-size: 14px;&quot;&gt;年&lt;/i&gt;" style="text;strokeColor=none;fillColor=none;html=1;fontSize=7;fontStyle=0;verticalAlign=middle;align=center;fontFamily=Comic Sans MS;" parent="1" vertex="1">
          <mxGeometry x="160" y="979.25" width="100" height="20" as="geometry" />
        </mxCell>
        <mxCell id="lFroKfWNAPlT9c4xP5ak-140" value="&lt;span style=&quot;font-size: 14px;&quot;&gt;&lt;i&gt;1799&lt;/i&gt;&lt;/span&gt;&lt;i style=&quot;border-color: var(--border-color); font-size: 14px;&quot;&gt;年&lt;/i&gt;" style="text;strokeColor=none;fillColor=none;html=1;fontSize=7;fontStyle=0;verticalAlign=middle;align=center;fontFamily=Comic Sans MS;" parent="1" vertex="1">
          <mxGeometry x="160" y="1029.5" width="100" height="20" as="geometry" />
        </mxCell>
        <mxCell id="lFroKfWNAPlT9c4xP5ak-141" value="&lt;font face=&quot;Times New Roman&quot;&gt;英国哈雷发现第一颗周期彗星，预期其周年为76年&lt;/font&gt;" style="text;html=1;strokeColor=none;fillColor=none;align=left;verticalAlign=middle;whiteSpace=wrap;rounded=0;" parent="1" vertex="1">
          <mxGeometry x="330" y="75" width="380" height="20" as="geometry" />
        </mxCell>
        <mxCell id="lFroKfWNAPlT9c4xP5ak-142" value="&lt;font face=&quot;Times New Roman&quot;&gt;法国杜菲区分正负电荷&lt;/font&gt;" style="text;html=1;strokeColor=none;fillColor=none;align=left;verticalAlign=middle;whiteSpace=wrap;rounded=0;" parent="1" vertex="1">
          <mxGeometry x="330" y="125" width="300" height="20" as="geometry" />
        </mxCell>
        <mxCell id="lFroKfWNAPlT9c4xP5ak-143" value="&lt;font face=&quot;Times New Roman&quot;&gt;瑞典林耐建立植物分类体系&lt;/font&gt;" style="text;html=1;strokeColor=none;fillColor=none;align=left;verticalAlign=middle;whiteSpace=wrap;rounded=0;" parent="1" vertex="1">
          <mxGeometry x="330" y="175" width="360" height="20" as="geometry" />
        </mxCell>
        <mxCell id="lFroKfWNAPlT9c4xP5ak-144" value="&lt;font face=&quot;Times New Roman&quot;&gt;法国达兰贝尔创立偏微分方程&lt;/font&gt;" style="text;html=1;strokeColor=none;fillColor=none;align=left;verticalAlign=middle;whiteSpace=wrap;rounded=0;" parent="1" vertex="1">
          <mxGeometry x="330" y="225" width="380" height="20" as="geometry" />
        </mxCell>
        <mxCell id="lFroKfWNAPlT9c4xP5ak-145" value="美国富兰克林发明避雷针" style="text;html=1;strokeColor=none;fillColor=none;align=left;verticalAlign=middle;whiteSpace=wrap;rounded=0;" parent="1" vertex="1">
          <mxGeometry x="330" y="275" width="400" height="20" as="geometry" />
        </mxCell>
        <mxCell id="lFroKfWNAPlT9c4xP5ak-146" value="&lt;font face=&quot;Times New Roman&quot;&gt;德国康德提出太阳系起源的星云假说&lt;/font&gt;" style="text;html=1;strokeColor=none;fillColor=none;align=left;verticalAlign=middle;whiteSpace=wrap;rounded=0;" parent="1" vertex="1">
          <mxGeometry x="330" y="325" width="300" height="20" as="geometry" />
        </mxCell>
        <mxCell id="lFroKfWNAPlT9c4xP5ak-147" value="&lt;font face=&quot;Times New Roman&quot;&gt;俄国罗蒙诺索夫发现质量守恒定律&lt;/font&gt;" style="text;html=1;strokeColor=none;fillColor=none;align=left;verticalAlign=middle;whiteSpace=wrap;rounded=0;" parent="1" vertex="1">
          <mxGeometry x="330" y="375" width="310" height="20" as="geometry" />
        </mxCell>
        <mxCell id="lFroKfWNAPlT9c4xP5ak-148" value="&lt;font face=&quot;Times New Roman&quot;&gt;英国哈格里沃斯发明珍妮纺织机&lt;/font&gt;" style="text;html=1;strokeColor=none;fillColor=none;align=left;verticalAlign=middle;whiteSpace=wrap;rounded=0;" parent="1" vertex="1">
          <mxGeometry x="330" y="425" width="290" height="20" as="geometry" />
        </mxCell>
        <mxCell id="lFroKfWNAPlT9c4xP5ak-149" value="英国瓦特改良蒸汽机，作为纺纱机的动力" style="text;html=1;strokeColor=none;fillColor=none;align=left;verticalAlign=middle;whiteSpace=wrap;rounded=0;" parent="1" vertex="1">
          <mxGeometry x="330" y="475" width="260" height="20" as="geometry" />
        </mxCell>
        <mxCell id="lFroKfWNAPlT9c4xP5ak-150" value="&lt;font face=&quot;Times New Roman&quot;&gt;英国卡文迪许发现氢元素并通过化合实验制得水、硝酸&lt;/font&gt;" style="text;html=1;strokeColor=none;fillColor=none;align=left;verticalAlign=middle;whiteSpace=wrap;rounded=0;" parent="1" vertex="1">
          <mxGeometry x="330" y="525" width="340" height="20" as="geometry" />
        </mxCell>
        <mxCell id="lFroKfWNAPlT9c4xP5ak-151" value="&lt;font face=&quot;Times New Roman&quot;&gt;英国卢瑟福发现氮元素&lt;/font&gt;" style="text;html=1;strokeColor=none;fillColor=none;align=left;verticalAlign=middle;whiteSpace=wrap;rounded=0;" parent="1" vertex="1">
          <mxGeometry x="330" y="579.5" width="270" height="20" as="geometry" />
        </mxCell>
        <mxCell id="lFroKfWNAPlT9c4xP5ak-153" value="&lt;font face=&quot;Times New Roman&quot;&gt;瑞典舍勒发现氧元素&lt;/font&gt;" style="text;html=1;strokeColor=none;fillColor=none;align=left;verticalAlign=middle;whiteSpace=wrap;rounded=0;" parent="1" vertex="1">
          <mxGeometry x="330" y="629.5" width="320" height="20" as="geometry" />
        </mxCell>
        <mxCell id="lFroKfWNAPlT9c4xP5ak-154" value="&lt;font face=&quot;Times New Roman&quot;&gt;法国拉瓦锡提出燃烧的氧化说，推翻燃素说，确立质量守恒定律&lt;/font&gt;" style="text;html=1;strokeColor=none;fillColor=none;align=left;verticalAlign=middle;whiteSpace=wrap;rounded=0;" parent="1" vertex="1">
          <mxGeometry x="330" y="679.5" width="380" height="20" as="geometry" />
        </mxCell>
        <mxCell id="lFroKfWNAPlT9c4xP5ak-155" value="&lt;font face=&quot;Times New Roman&quot;&gt;英国赫歇尔发现天王星&lt;/font&gt;" style="text;html=1;strokeColor=none;fillColor=none;align=left;verticalAlign=middle;whiteSpace=wrap;rounded=0;" parent="1" vertex="1">
          <mxGeometry x="330" y="729.5" width="250" height="20" as="geometry" />
        </mxCell>
        <mxCell id="lFroKfWNAPlT9c4xP5ak-156" value="&lt;font face=&quot;Times New Roman&quot;&gt;赫歇尔发现太阳系处在银河系中&lt;/font&gt;" style="text;html=1;strokeColor=none;fillColor=none;align=left;verticalAlign=middle;whiteSpace=wrap;rounded=0;" parent="1" vertex="1">
          <mxGeometry x="330" y="779.5" width="350" height="20" as="geometry" />
        </mxCell>
        <mxCell id="lFroKfWNAPlT9c4xP5ak-157" value="&lt;font face=&quot;Times New Roman&quot;&gt;法国库仑发现库仑定律；&lt;br&gt;英国卡特莱特发明水力织布机&lt;/font&gt;" style="text;html=1;strokeColor=none;fillColor=none;align=left;verticalAlign=middle;whiteSpace=wrap;rounded=0;" parent="1" vertex="1">
          <mxGeometry x="330" y="829.5" width="290" height="20" as="geometry" />
        </mxCell>
        <mxCell id="lFroKfWNAPlT9c4xP5ak-158" value="&lt;font face=&quot;Times New Roman&quot;&gt;法国查理提出气体膨胀的查理定律&lt;/font&gt;" style="text;html=1;strokeColor=none;fillColor=none;align=left;verticalAlign=middle;whiteSpace=wrap;rounded=0;" parent="1" vertex="1">
          <mxGeometry x="330" y="879.5" width="350" height="20" as="geometry" />
        </mxCell>
        <mxCell id="lFroKfWNAPlT9c4xP5ak-159" value="&lt;font face=&quot;Times New Roman&quot;&gt;法国拉普拉斯发表《天体力学》；&lt;br&gt;英国詹纳发明牛痘接种法&lt;/font&gt;" style="text;html=1;strokeColor=none;fillColor=none;align=left;verticalAlign=middle;whiteSpace=wrap;rounded=0;" parent="1" vertex="1">
          <mxGeometry x="330" y="929.5" width="340" height="20" as="geometry" />
        </mxCell>
        <mxCell id="lFroKfWNAPlT9c4xP5ak-160" value="&lt;font face=&quot;Times New Roman&quot;&gt;法国伦福德提出热是运动；&lt;br&gt;卡文迪许用扭秤精密测定万有引力常数&lt;/font&gt;" style="text;html=1;strokeColor=none;fillColor=none;align=left;verticalAlign=middle;whiteSpace=wrap;rounded=0;" parent="1" vertex="1">
          <mxGeometry x="330" y="979.5" width="380" height="20" as="geometry" />
        </mxCell>
        <mxCell id="lFroKfWNAPlT9c4xP5ak-161" value="&lt;font face=&quot;Times New Roman&quot;&gt;英国克隆普顿发明骡机；&lt;br&gt;法国采用米·千克·秒标准单位；&lt;br&gt;法国普罗斯提出定比定律&lt;/font&gt;" style="text;html=1;strokeColor=none;fillColor=none;align=left;verticalAlign=middle;whiteSpace=wrap;rounded=0;" parent="1" vertex="1">
          <mxGeometry x="330" y="1029.5" width="340" height="20" as="geometry" />
        </mxCell>
      </root>
    </mxGraphModel>
  </diagram>
</mxfile>
